<svg width="25" height="25" viewBox="0 0 25 25" fill="none" xmlns="http://www.w3.org/2000/svg">
<g clip-path="url(#clip0_51107_3228)">
<path d="M19.0776 23.6824H14.4349C14.7444 23.1246 15.0745 22.4112 15.1884 21.9137C15.2613 21.6357 15.2218 21.3402 15.0785 21.0912L15.6253 20.2398C15.8815 20.1427 15.2104 19.7141 15.2104 19.7141L16.1392 17.7581C16.3392 17.5949 16.528 17.4185 16.7044 17.2301C16.8101 17.1205 16.8851 16.985 16.9216 16.8372C16.9399 16.7678 16.9449 16.6957 16.9365 16.6244L16.9409 16.6235C16.9409 16.6235 19.2955 16.7128 20.2147 17.6719C21.7035 19.2253 21.22 23.6819 21.22 23.6819H19.0776V23.6824Z" fill="#69D6F9"/>
<path d="M21.0842 6.59061L17.0042 9.45477L18.0001 3.97485L21.0842 6.59061ZM17.6535 8.43981L20.3364 6.55581L18.3078 4.83621L17.6535 8.43981Z" fill="#0400BF"/>
<path d="M12.4015 15.4829C12.5295 15.3629 12.7735 15.2653 13.0829 15.4469C13.417 15.6433 13.5405 16.1202 13.9168 16.144C14.2931 16.1677 14.8464 15.8582 15.3989 15.4829C15.6336 15.3238 15.9277 15.1088 16.2108 14.9093C16.3217 14.8342 16.424 14.747 16.5159 14.6495C16.6028 14.5406 16.682 14.4258 16.7528 14.3058C16.8873 14.1158 17.0965 14.0983 17.1563 14.2385C17.1714 14.2964 17.174 14.3568 17.1639 14.4158C17.1538 14.4747 17.1313 14.5309 17.0979 14.5805C16.9911 14.7832 16.8641 14.9747 16.7189 15.1519L16.7374 15.1673C16.7957 15.2409 16.8338 15.3284 16.848 15.4212C16.8622 15.514 16.852 15.6089 16.8183 15.6965L16.831 15.7009C16.8858 15.8023 16.9124 15.9166 16.908 16.0318C16.9036 16.147 16.8683 16.259 16.8059 16.3559C16.8719 16.4326 16.9169 16.5251 16.9365 16.6244C16.9449 16.6957 16.9399 16.7679 16.9216 16.8372C16.8851 16.985 16.8101 17.1205 16.7044 17.2301C16.528 17.4185 16.3392 17.5949 16.1392 17.7581L15.2104 19.7141L15.0143 20.1272L15.0046 20.1528C14.2218 19.8521 13.0846 19.0128 13.0846 19.0128L13.4217 18.4554L13.8309 17.7794C13.5763 17.5548 13.4973 17.5223 13.3839 17.3016C13.2685 17.0748 13.1872 16.8322 13.1425 16.5816C13.081 16.2977 12.8748 16.0902 12.5747 15.9236C12.4881 15.8813 12.4121 15.8202 12.3522 15.7447C12.3257 15.7103 12.3131 15.6672 12.317 15.6239C12.321 15.5806 12.3411 15.5404 12.3733 15.5113C12.3822 15.5014 12.3918 15.4922 12.4015 15.4829Z" fill="#FFC077"/>
<path d="M16.6398 6.28738L16.4139 6.5305L16.1919 6.32434L15.9703 6.11818L16.1963 5.87506L16.6398 6.28738Z" fill="#0400BF"/>
<path d="M16.1651 14.0534C16.1638 14.0533 16.1625 14.053 16.1612 14.0526C16.1625 14.053 16.1638 14.0533 16.1651 14.0534V14.0534ZM16.1668 14.0534C16.2112 14.0666 16.5106 14.1584 16.5053 14.2948C16.5 14.442 16.398 14.442 16.398 14.442C16.4183 14.4604 16.4339 14.4834 16.4437 14.5089C16.4535 14.5345 16.4571 14.562 16.4543 14.5892L16.5159 14.6492C16.4241 14.7468 16.3218 14.8339 16.2108 14.909C15.9278 15.1086 15.6336 15.3235 15.3989 15.4826C14.8469 15.858 14.2935 16.168 13.9168 16.1437C13.5401 16.1195 13.417 15.6431 13.0829 15.4466C12.7731 15.2646 12.5295 15.3626 12.4016 15.4826C12.3018 15.535 12.2152 15.4519 12.1695 15.3386C12.1477 15.2839 12.1362 15.2257 12.1356 15.1668C12.1356 15.1668 11.9556 14.8274 11.6882 14.4328C11.6122 14.3109 11.5151 14.2034 11.4016 14.1154C11.4003 14.1145 11.399 14.1132 11.3976 14.1124C11.3574 14.0774 11.3069 14.0563 11.2536 14.0524C10.8632 13.4975 10.6849 12.8208 10.7513 12.1456C10.7513 12.1411 10.7513 12.1385 10.7513 12.1385C10.7646 11.9774 10.791 11.8176 10.83 11.6608C10.7434 12.1109 11.3355 12.3526 11.4726 12.4836C11.6159 12.6203 11.4246 12.8959 11.4726 13.3007C11.4906 13.527 11.5596 13.7463 11.6743 13.9423C11.789 14.1382 11.9465 14.3057 12.135 14.4322C12.5703 14.7082 12.9764 14.5372 13.4384 14.5434C13.3491 14.1653 13.4717 13.796 13.9517 13.5557C14.3043 13.3611 14.6968 13.2503 15.099 13.2317C15.252 13.2241 15.4032 13.2678 15.5285 13.3558C15.6538 13.4439 15.7462 13.5713 15.7908 13.7178C15.7908 13.7178 15.8976 13.3025 15.8682 13.1825C15.7988 12.8964 15.6982 12.6187 15.5682 12.3545C15.7774 12.6097 15.9431 12.8975 16.0588 13.2065C16.0588 13.2065 16.2684 13.3595 16.2684 13.4958C16.2689 13.5325 16.2548 13.568 16.2293 13.5945C16.2039 13.6209 16.169 13.6363 16.1322 13.6373C16.1322 13.6373 16.3482 13.7621 16.3252 13.9265C16.3255 13.9461 16.3213 13.9655 16.3129 13.9832C16.3046 14.0009 16.2923 14.0165 16.277 14.0288C16.2618 14.0411 16.2439 14.0497 16.2248 14.0541C16.2057 14.0584 16.1859 14.0584 16.1668 14.0539V14.0534ZM15.4785 14.4793C15.7361 14.4521 15.7374 14.1193 15.6011 13.7906C15.286 13.1695 14.7114 13.504 14.2592 13.6741C13.8069 13.8443 13.5444 14.0381 13.7612 14.5418C13.8452 14.7338 14.1387 15.06 14.4416 14.9334C14.7444 14.8068 14.6328 14.5123 14.8976 14.4192C15.2051 14.3106 15.2438 14.5049 15.4785 14.4798V14.4793Z" fill="#0400BF"/>
<path d="M16.1919 6.32432L16.4139 6.53048L14.4873 8.60336L14.4714 8.37524L14.2653 8.3972L14.26 8.1788L14.0438 8.19104L15.9704 6.11816L16.1919 6.32432Z" fill="#FFC077"/>
<path d="M14.0358 12.0377C14.158 12.1186 14.205 11.9177 14.3646 11.7326C14.5 11.5688 14.6837 11.4519 14.8894 11.3986C14.7924 11.3732 14.6909 11.3705 14.5927 11.3907C14.4945 11.4109 14.4023 11.4535 14.3232 11.5151C14.0525 11.7269 13.9142 11.9573 14.0358 12.0377ZM12.1038 12.6289C12.4946 12.1969 12.3742 12.0874 12.8778 11.9753C13.1165 11.9221 13.2717 12.0631 13.2581 11.9172C13.2446 11.7713 12.9764 11.697 12.6616 11.836C12.3519 11.973 12.1106 12.6091 12.1038 12.6289ZM15.8691 13.1832C15.8985 13.3032 15.7917 13.7185 15.7917 13.7185C15.747 13.572 15.6547 13.4446 15.5293 13.3566C15.404 13.2685 15.2529 13.2248 15.0999 13.2324C14.6977 13.251 14.3051 13.3618 13.9526 13.5564C13.4726 13.7964 13.3499 14.166 13.4392 14.5441C12.9772 14.5379 12.5711 14.7089 12.1359 14.4329C11.9473 14.3064 11.7898 14.1389 11.6751 13.943C11.5604 13.7471 11.4915 13.5277 11.4735 13.3014C11.4255 12.8966 11.6168 12.621 11.4735 12.4843C11.3363 12.3533 10.7442 12.1116 10.8309 11.6615C10.8613 11.5345 10.9031 11.4105 10.9557 11.2909C11.4084 10.286 12.6225 10.0114 13.259 10.0118C13.8312 10.0118 14.6915 10.5376 15.022 11.0338C15.2093 11.3142 15.1222 11.392 15.2084 11.6566V11.6575C15.23 11.7228 15.2563 11.7864 15.2871 11.8478C15.3257 11.9266 15.4418 12.0974 15.5679 12.3551C15.6982 12.6193 15.7991 12.897 15.8688 13.1832H15.8691ZM14.7983 12.1699C14.8744 12.1555 14.9205 12.1099 14.9012 12.0065C14.8818 11.903 14.8044 11.8324 14.7284 11.8465C14.6873 11.8619 14.6537 11.8924 14.6346 11.9318C14.6154 11.9713 14.6122 12.0166 14.6255 12.0583C14.6278 12.0778 14.6343 12.0966 14.6447 12.1133C14.655 12.13 14.669 12.1442 14.6855 12.1549C14.702 12.1655 14.7206 12.1724 14.7401 12.175C14.7596 12.1776 14.7794 12.1759 14.7981 12.1699H14.7983ZM12.9807 12.8737C13.0629 12.8579 13.1127 12.8077 13.0919 12.6966C13.0712 12.5855 12.9873 12.508 12.9047 12.5238C12.8603 12.5403 12.8239 12.5734 12.8032 12.616C12.7825 12.6587 12.779 12.7077 12.7935 12.7529C12.7959 12.774 12.803 12.7944 12.8142 12.8125C12.8254 12.8306 12.8405 12.846 12.8584 12.8575C12.8763 12.8691 12.8965 12.8765 12.9176 12.8793C12.9387 12.8821 12.9602 12.8802 12.9804 12.8737H12.9807Z" fill="#FFC077"/>
<path d="M15.6254 20.2398L15.0785 21.0912C15.2219 21.3403 15.2614 21.6357 15.1885 21.9137C15.0746 22.4112 14.7445 23.1246 14.435 23.6824H9.94757C10.2812 23.1928 11.6201 20.7784 11.9396 20.4077C12.2314 20.0688 12.4833 20.0073 12.4833 20.0073L13.0851 19.0126C13.0851 19.0126 14.2222 19.8526 15.0051 20.1526C15.1374 20.2081 15.2773 20.2433 15.4201 20.2572C15.489 20.2645 15.5587 20.2586 15.6254 20.2398V20.2398Z" fill="#69D6F9"/>
<path d="M12.3541 12.9876C12.5719 12.9776 12.7889 12.9551 13.0042 12.9203C13.1945 12.8768 13.2064 12.6108 13.2064 12.6108C13.2064 12.6108 13.14 12.4188 12.8696 12.4997C12.6605 12.5621 12.3541 12.9876 12.3541 12.9876Z" fill="white"/>
<path d="M14.1558 12.2843C14.374 12.2797 14.5914 12.2572 14.8059 12.217C15.0767 12.1392 14.9871 11.831 14.9871 11.831C14.9871 11.831 14.9488 11.7449 14.6718 11.7964C14.5285 11.8228 14.1558 12.2843 14.1558 12.2843Z" fill="white"/>
<path d="M15.6011 13.7911C15.7374 14.1198 15.7361 14.4526 15.4785 14.4798C15.2438 14.5049 15.2051 14.3106 14.897 14.4198C14.633 14.5129 14.7444 14.8079 14.441 14.934C14.1375 15.0601 13.8441 14.7349 13.7606 14.5424C13.5438 14.0384 13.8058 13.8448 14.2586 13.6747C14.7113 13.5047 15.286 13.17 15.6011 13.7911Z" fill="#FFC077"/>
<path d="M14.3238 11.5151C14.4029 11.4535 14.4951 11.4109 14.5933 11.3907C14.6915 11.3705 14.793 11.3732 14.89 11.3986C14.6842 11.4519 14.5006 11.5688 14.3652 11.7326C14.2056 11.9182 14.1586 12.1186 14.0364 12.0377C13.9143 11.9568 14.0525 11.7269 14.3238 11.5151Z" fill="#0400BF"/>
<path d="M13.8688 8.67107C13.9708 8.64563 14.0719 8.71247 14.0213 8.81303L13.7765 8.92343L13.8684 8.67143L13.8688 8.67107Z" fill="#0400BF"/>
<path d="M12.0745 16.9853L12.3637 16.8869L12.0745 15.3642C12.0948 15.3594 12.115 15.3533 12.1356 15.3467L12.1695 15.3383C12.2152 15.4521 12.3015 15.5352 12.4015 15.4823C12.3915 15.4915 12.3822 15.5007 12.3735 15.5105C12.3412 15.5395 12.3211 15.5797 12.3172 15.623C12.3132 15.6663 12.3258 15.7094 12.3523 15.7439C12.4122 15.8194 12.4882 15.8805 12.5748 15.9228C12.8748 16.0893 13.0811 16.2968 13.1427 16.5807C13.1873 16.8313 13.2686 17.0739 13.384 17.3007C13.4974 17.5214 13.576 17.5539 13.831 17.7786L13.4218 18.4545C12.0745 17.9689 11.8596 16.8863 11.8596 16.8863C11.9013 16.877 11.945 16.8816 11.9838 16.8995C12.0226 16.9174 12.0545 16.9475 12.0745 16.9853V16.9853Z" fill="#FFC077"/>
<path d="M13.4218 18.4551L13.0847 19.0125L12.4829 20.0072C12.4829 20.0072 12.2309 20.0688 11.9392 20.4076C11.6201 20.7782 10.2811 23.1927 9.94718 23.6823H7.13582C7.13582 23.6823 6.96662 21.0468 7.64306 19.4331C8.3195 17.8195 11.8602 16.8868 11.8602 16.8868C11.8602 16.8868 12.0745 17.9695 13.4218 18.4551Z" fill="#69D6F9"/>
<path d="M13.2579 11.9172C13.2714 12.0631 13.1163 11.9221 12.8776 11.9752C12.3736 12.0873 12.4943 12.1968 12.1036 12.6289C12.1105 12.6091 12.3519 11.973 12.6613 11.8359C12.9761 11.697 13.2447 11.7712 13.2579 11.9172Z" fill="#0400BF"/>
<path d="M12.1695 15.3383L12.1356 15.3467C12.115 15.3533 12.0948 15.3594 12.0745 15.3642C11.1827 15.5946 10.9105 14.4042 11.0376 14.1787C11.1568 13.9659 11.3659 14.0917 11.3976 14.112C11.3989 14.1128 11.4003 14.1141 11.4016 14.115C11.5151 14.203 11.6121 14.3105 11.6881 14.4324C11.9559 14.8271 12.1356 15.1664 12.1356 15.1664C12.1362 15.2253 12.1477 15.2836 12.1695 15.3383V15.3383Z" fill="#FFC077"/>
<path d="M9.77391 9.93084C9.89475 10.1314 9.29043 10.7182 8.42403 11.2412C7.55763 11.7643 6.75675 12.0258 6.63603 11.8249C6.51531 11.624 7.11915 11.0377 7.98543 10.515C8.85171 9.99228 9.65259 9.73044 9.77391 9.93084Z" fill="#69D6F9"/>
<path d="M8.18353 7.2962L9.77389 9.9308C9.65257 9.7304 8.85217 9.99188 7.98589 10.515C7.11961 11.038 6.51457 11.6245 6.63589 11.8249L5.04553 9.19112C5.16685 9.39152 5.96737 9.12992 6.83353 8.60684C7.69969 8.08376 8.30449 7.49744 8.18353 7.2962Z" fill="#69D6F9"/>
<path d="M8.18355 7.29621C8.30451 7.49709 7.70055 8.08341 6.83367 8.60649C5.96679 9.12957 5.16687 9.39117 5.04567 9.19077C4.92447 8.99037 5.52927 8.40345 6.39555 7.88037C7.26183 7.35729 8.06271 7.09617 8.18355 7.29621Z" fill="#69D6F9"/>
<path d="M13.831 14.2693L13.9703 14.2781C14.0485 14.1688 14.1397 14.0695 14.242 13.9823C14.3152 13.9323 14.3988 13.8995 14.4864 13.8863" stroke="#0400BF" stroke-width="0.08796" stroke-linecap="round" stroke-linejoin="round"/>
<path d="M14.616 13.835C14.7418 13.7958 14.8706 13.7668 15.0011 13.7484C15.0979 13.7658 15.1933 13.7905 15.2863 13.8223L15.3528 13.7185" stroke="#0400BF" stroke-width="0.08796" stroke-linecap="round" stroke-linejoin="round"/>
<path d="M14.3787 14.3872C14.515 14.3849 14.6504 14.3638 14.7809 14.3243C14.907 14.2726 15.0283 14.2101 15.1435 14.1375" stroke="#0400BF" stroke-width="0.08796" stroke-linecap="round" stroke-linejoin="round"/>
<path d="M13.875 13.2324C13.8772 13.1957 13.8911 13.1606 13.9145 13.1322C13.9305 13.1116 13.9536 13.0978 13.9793 13.0933C14.005 13.0889 14.0314 13.0942 14.0534 13.1082C14.1365 13.1491 14.2294 13.1657 14.3215 13.1562C14.4288 13.1442 14.496 13.0384 14.5375 12.9751C14.5471 12.9613 14.5606 12.9508 14.5763 12.9449C14.592 12.939 14.6091 12.938 14.6254 12.9421C14.6417 12.9463 14.6563 12.9552 14.6673 12.9679C14.6783 12.9805 14.6852 12.9962 14.687 13.0129" stroke="#0400BF" stroke-width="0.08796" stroke-linecap="round" stroke-linejoin="round"/>
<path d="M13.6591 13.046C13.5976 13.1805 13.6377 13.4011 13.8021 13.3788" stroke="#0400BF" stroke-width="0.08796" stroke-linecap="round" stroke-linejoin="round"/>
<path d="M14.715 12.7124C14.715 12.7124 15.0283 12.9044 14.8271 13.0952" stroke="#0400BF" stroke-width="0.08796" stroke-linecap="round" stroke-linejoin="round"/>
<path d="M12.1038 12.6289C12.1108 12.6091 12.3521 11.973 12.6616 11.8359C12.9763 11.697 13.2449 11.7712 13.2581 11.9172C13.2713 12.0631 13.1165 11.9221 12.8778 11.9752C12.3739 12.0873 12.4943 12.1968 12.1038 12.6289Z" stroke="#0400BF" stroke-width="0.08796" stroke-linecap="round" stroke-linejoin="round"/>
<path d="M14.0358 12.0377C14.158 12.1186 14.205 11.9177 14.3646 11.7326C14.5 11.5688 14.6837 11.4519 14.8894 11.3986C14.7924 11.3732 14.6909 11.3705 14.5927 11.3907C14.4945 11.4109 14.4023 11.4535 14.3232 11.5151C14.0525 11.7269 13.9142 11.9573 14.0358 12.0377Z" stroke="#0400BF" stroke-width="0.08796" stroke-linecap="round" stroke-linejoin="round"/>
<path d="M12.3541 12.9414C12.3541 12.9414 12.5725 12.6043 12.7585 12.5312C12.8831 12.4876 13.0162 12.4737 13.1471 12.4908" stroke="#0400BF" stroke-width="0.08796" stroke-linecap="round" stroke-linejoin="round"/>
<path d="M12.9585 12.7067C12.947 12.6412 12.9151 12.5811 12.8675 12.5348C12.8178 12.4886 12.7734 12.5444 12.715 12.5559C12.5981 12.5779 12.5128 12.6363 12.54 12.7854C12.5458 12.8348 12.57 12.8802 12.6078 12.9126C12.6456 12.9449 12.6943 12.9618 12.744 12.9599C12.7627 12.9597 12.7814 12.958 12.7998 12.9546C12.8279 12.9517 12.8551 12.9424 12.8791 12.9276C12.9032 12.9127 12.9236 12.8927 12.9389 12.8688C12.9541 12.845 12.9638 12.8181 12.9672 12.79C12.9706 12.7619 12.9676 12.7334 12.9585 12.7067V12.7067Z" fill="#0400BF"/>
<path d="M14.2068 12.271C14.2068 12.271 14.3813 11.9338 14.5677 11.8614C14.6922 11.8174 14.8254 11.8036 14.9564 11.8209" stroke="#0400BF" stroke-width="0.08796" stroke-linecap="round" stroke-linejoin="round"/>
<path d="M14.7326 12.0464C14.7302 12.0202 14.7223 11.9947 14.7095 11.9717C14.6967 11.9487 14.6793 11.9286 14.6582 11.9127C14.6372 11.8968 14.6131 11.8855 14.5875 11.8795C14.5618 11.8734 14.5352 11.8728 14.5093 11.8777C14.4834 11.8826 14.4588 11.8928 14.4371 11.9077C14.4154 11.9226 14.3971 11.9419 14.3832 11.9643C14.3694 11.9867 14.3604 12.0118 14.3569 12.0379C14.3533 12.064 14.3552 12.0906 14.3625 12.1159C14.3659 12.1406 14.3744 12.1644 14.3873 12.1858C14.4002 12.2072 14.4173 12.2258 14.4376 12.2403C14.4686 12.2608 14.5051 12.2714 14.5422 12.2706C14.5588 12.2704 14.5752 12.2688 14.5914 12.2658C14.6163 12.263 14.6402 12.2548 14.6614 12.2416C14.6827 12.2284 14.7007 12.2107 14.7142 12.1897C14.7277 12.1687 14.7364 12.1449 14.7396 12.1201C14.7427 12.0953 14.7404 12.0701 14.7326 12.0464V12.0464Z" fill="#0400BF"/>
<path d="M14.0358 12.0377C14.0549 12.1054 14.0877 12.1684 14.1322 12.2229C14.1766 12.2775 14.2318 12.3223 14.2943 12.3546" stroke="#0400BF" stroke-width="0.08796" stroke-linecap="round" stroke-linejoin="round"/>
<path d="M11.3976 14.1122C11.366 14.0919 11.1568 13.9662 11.0376 14.1789C10.911 14.4041 11.1827 15.5949 12.0746 15.3644C12.0948 15.3596 12.115 15.3535 12.1356 15.3469" stroke="#0400BF" stroke-width="0.08796" stroke-linecap="round" stroke-linejoin="round"/>
<path d="M11.4798 14.4324C11.3159 14.4324 11.2557 14.6996 11.4198 14.9414C11.4678 15.0099 11.5361 15.0617 11.615 15.0895C11.6939 15.1174 11.7795 15.1198 11.8599 15.0966" stroke="#0400BF" stroke-width="0.08796" stroke-linecap="round" stroke-linejoin="round"/>
<path d="M12.4108 15.4781C12.4078 15.4799 12.4047 15.4815 12.4015 15.4829C12.3018 15.5352 12.2152 15.4522 12.1694 15.3389C12.1477 15.2842 12.1362 15.2259 12.1356 15.1671C12.1356 15.1671 11.9556 14.8277 11.6881 14.433C11.6121 14.3111 11.5151 14.2036 11.4016 14.1156C11.4002 14.1148 11.3989 14.1135 11.3976 14.1125C11.3572 14.0778 11.3067 14.057 11.2536 14.0532" stroke="#0400BF" stroke-width="0.08796" stroke-linecap="round" stroke-linejoin="round"/>
<path d="M10.7514 12.1458C10.6853 12.821 10.8635 13.4974 11.2539 14.0523" stroke="#0400BF" stroke-width="0.08796" stroke-linecap="round" stroke-linejoin="round"/>
<path d="M15.2081 11.6561C15.1219 11.3921 15.2091 11.3137 15.0217 11.0333C14.6913 10.5371 13.831 10.0114 13.2587 10.0114C12.6227 10.0114 11.4082 10.2856 10.9554 11.2904C10.9028 11.41 10.861 11.534 10.8306 11.661C10.7915 11.8178 10.7652 11.9776 10.7519 12.1387" stroke="#0400BF" stroke-width="0.08796" stroke-linecap="round" stroke-linejoin="round"/>
<path d="M15.5681 12.3546C15.442 12.097 15.3259 11.9261 15.2873 11.8474C15.2565 11.7859 15.2302 11.7223 15.2086 11.657" stroke="#0400BF" stroke-width="0.08796" stroke-linecap="round" stroke-linejoin="round"/>
<path d="M10.846 11.6003C10.8395 11.6202 10.8344 11.6404 10.8306 11.661C10.744 12.1111 11.3361 12.3528 11.4732 12.4838C11.6165 12.6205 11.4252 12.8962 11.4732 13.3009C11.4912 13.5272 11.5602 13.7466 11.6749 13.9425C11.7896 14.1384 11.9471 14.3059 12.1356 14.4324C12.5709 14.7084 12.977 14.5374 13.439 14.5436C13.3497 14.1655 13.4723 13.7963 13.9523 13.5559C14.3048 13.3614 14.6974 13.2505 15.0996 13.2319C15.2526 13.2243 15.4038 13.268 15.5291 13.3561C15.6544 13.4441 15.7467 13.5715 15.7914 13.718C15.7914 13.718 15.8982 13.3027 15.8688 13.1827C15.7994 12.8966 15.6988 12.6189 15.5688 12.3547" stroke="#0400BF" stroke-width="0.08796" stroke-linecap="round" stroke-linejoin="round"/>
<path d="M16.1668 14.0539C16.1859 14.0584 16.2057 14.0585 16.2248 14.0542C16.244 14.0499 16.2618 14.0413 16.2771 14.0291C16.2924 14.0168 16.3047 14.0013 16.3131 13.9835C16.3215 13.9658 16.3258 13.9465 16.3256 13.9269C16.3479 13.7625 16.1326 13.6377 16.1326 13.6377C16.1693 13.6367 16.2042 13.6213 16.2297 13.5948C16.2552 13.5684 16.2692 13.5329 16.2688 13.4962C16.2688 13.3599 16.0592 13.2069 16.0592 13.2069C15.9434 12.8979 15.7777 12.6101 15.5686 12.3549V12.3549" stroke="#0400BF" stroke-width="0.08796" stroke-linecap="round" stroke-linejoin="round"/>
<path d="M16.1651 14.0535C16.1637 14.0533 16.1624 14.053 16.1611 14.0526C16.1624 14.053 16.1637 14.0533 16.1651 14.0535V14.0535Z" stroke="#0400BF" stroke-width="0.08796" stroke-linecap="round" stroke-linejoin="round"/>
<path d="M16.1651 14.0534C16.1651 14.0534 16.1659 14.0534 16.1668 14.0534" stroke="#0400BF" stroke-width="0.08796" stroke-linecap="round" stroke-linejoin="round"/>
<path d="M16.4543 14.5897C16.4571 14.5625 16.4535 14.535 16.4437 14.5094C16.4339 14.4838 16.4183 14.4609 16.398 14.4425C16.398 14.4425 16.5 14.4425 16.5053 14.2952C16.5106 14.1589 16.2112 14.0672 16.1668 14.0539" stroke="#0400BF" stroke-width="0.08796" stroke-linecap="round" stroke-linejoin="round"/>
<path d="M16.0288 15.7409C16.1602 15.6301 16.304 15.5249 16.5009 15.3708C16.581 15.3058 16.654 15.2326 16.7189 15.1524C16.8641 14.9751 16.9911 14.7837 17.0979 14.581C17.1313 14.5314 17.1538 14.4752 17.1639 14.4163C17.174 14.3573 17.1714 14.2969 17.1563 14.239C17.0963 14.0988 16.8873 14.1163 16.7528 14.3063C16.682 14.4263 16.6028 14.5411 16.5159 14.65C16.424 14.7475 16.3217 14.8346 16.2108 14.9098C15.9278 15.1093 15.6336 15.3243 15.3989 15.4834C14.8469 15.8587 14.2935 16.1687 13.9168 16.1445C13.5401 16.1202 13.417 15.6438 13.0829 15.4474C12.773 15.2653 12.5295 15.3634 12.4016 15.4834C12.3915 15.4926 12.3822 15.5019 12.3735 15.5116C12.3412 15.5407 12.3211 15.5809 12.3172 15.6241C12.3133 15.6674 12.3258 15.7106 12.3524 15.745C12.4122 15.8205 12.4882 15.8816 12.5747 15.9239C12.8747 16.0905 13.0811 16.2979 13.1427 16.5819C13.1873 16.8324 13.2686 17.075 13.384 17.3019C13.4974 17.5225 13.576 17.5551 13.831 17.7797" stroke="#0400BF" stroke-width="0.08796" stroke-linecap="round" stroke-linejoin="round"/>
<path d="M16.831 15.7014C16.8858 15.8028 16.9124 15.9171 16.908 16.0323C16.9036 16.1475 16.8683 16.2594 16.8059 16.3564C16.7512 16.4534 16.6848 16.5432 16.6082 16.624" stroke="#0400BF" stroke-width="0.08796" stroke-linecap="round" stroke-linejoin="round"/>
<path d="M16.8059 16.3562C16.8719 16.4329 16.9169 16.5255 16.9365 16.6248C16.945 16.696 16.9399 16.7682 16.9216 16.8375C16.8851 16.9853 16.8102 17.1209 16.7044 17.2304C16.528 17.4188 16.3392 17.5952 16.1392 17.7584C16.0445 17.8352 15.9449 17.9058 15.8411 17.9698" stroke="#0400BF" stroke-width="0.08796" stroke-linecap="round" stroke-linejoin="round"/>
<path d="M16.1392 17.7581L15.2104 19.7141L15.0143 20.1272" stroke="#0400BF" stroke-width="0.08796" stroke-linecap="round" stroke-linejoin="round"/>
<path d="M13.831 17.7792L13.4218 18.4551L13.0847 19.0125L12.4829 20.0072C12.4829 20.0072 12.2309 20.0688 11.9392 20.4077C11.6201 20.7782 10.2812 23.1927 9.9472 23.6823" stroke="#0400BF" stroke-width="0.08796" stroke-linecap="round" stroke-linejoin="round"/>
<path d="M13.0847 19.0126C13.0847 19.0126 14.2218 19.8526 15.0047 20.1526C15.137 20.2081 15.2769 20.2433 15.4197 20.2572C15.4888 20.2645 15.5586 20.2585 15.6255 20.2396C15.8817 20.1424 15.2105 19.7139 15.2105 19.7139" stroke="#0400BF" stroke-width="0.08796" stroke-linecap="round" stroke-linejoin="round"/>
<path d="M15.6253 20.2398L15.0785 21.0912C15.2218 21.3403 15.2613 21.6357 15.1884 21.9137C15.0745 22.4112 14.7444 23.1246 14.4349 23.6824" stroke="#0400BF" stroke-width="0.08796" stroke-linecap="round" stroke-linejoin="round"/>
<path d="M7.13582 23.6823C7.13582 23.6823 6.96662 21.0468 7.64306 19.4331C8.3195 17.8195 11.8602 16.8868 11.8602 16.8868C11.8602 16.8868 12.0751 17.9695 13.4224 18.4551" stroke="#0400BF" stroke-width="0.08796" stroke-linecap="round" stroke-linejoin="round"/>
<path d="M12.0745 15.3642L12.3637 16.8869L12.4108 17.1343" stroke="#0400BF" stroke-width="0.08796" stroke-linecap="round" stroke-linejoin="round"/>
<path d="M11.9238 17.0367L12.0745 16.9852L12.3637 16.8868H12.3642" stroke="#0400BF" stroke-width="0.08796" stroke-linecap="round" stroke-linejoin="round"/>
<path d="M16.9409 16.624C16.9409 16.624 19.2956 16.7132 20.2148 17.6724C21.7035 19.2258 21.22 23.6824 21.22 23.6824" stroke="#0400BF" stroke-width="0.08796" stroke-linecap="round" stroke-linejoin="round"/>
<path d="M19.2354 23.0191C19.1488 23.3949 19.0776 23.6823 19.0776 23.6823" stroke="#0400BF" stroke-width="0.08796" stroke-linecap="round" stroke-linejoin="round"/>
<path d="M19.5413 21.4073C19.5299 21.6965 19.3655 22.4564 19.2358 23.0186" stroke="#0400BF" stroke-width="0.08796" stroke-linecap="round" stroke-linejoin="round"/>
<path d="M13.7611 14.5423C13.8451 14.7343 14.1387 15.0605 14.4415 14.9339C14.7444 14.8073 14.6328 14.5128 14.8975 14.4197C15.2057 14.3106 15.2443 14.5049 15.479 14.4797C15.7367 14.4525 15.738 14.1197 15.6017 13.791C15.2866 13.1699 14.712 13.5043 14.2597 13.6745C13.8075 13.8447 13.5444 14.0386 13.7611 14.5423Z" stroke="#0400BF" stroke-width="0.08796" stroke-linecap="round" stroke-linejoin="round"/>
<path d="M20.2489 9.80292L20.2502 9.80424C20.2775 9.846 20.9232 10.8434 20.0063 11.4271C19.0697 12.0236 18.3756 10.705 18.3756 10.705C18.3756 10.705 18.2402 11.845 17.1725 11.929C16.9833 11.9396 16.7944 11.9026 16.6231 11.8216C16.4519 11.7405 16.3036 11.6178 16.1918 11.4648C16.0574 11.2986 15.95 11.1124 15.8736 10.9128" stroke="#0400BF" stroke-width="0.08796" stroke-linecap="round" stroke-linejoin="round"/>
<path d="M17.3358 2.7252C17.3478 2.70408 17.7525 2.007 18.5565 2.17008C19.4421 2.35008 19.3156 3.28044 19.3156 3.28044C19.3156 3.28044 21.1854 1.9266 22.5049 3.7314C23.9221 5.66976 22.0887 7.06236 22.0887 7.06236C22.0887 7.06236 23.7955 8.19552 22.6852 9.5832C21.5968 10.9436 20.3015 9.8472 20.2509 9.80424" stroke="#0400BF" stroke-width="0.08796" stroke-linecap="round" stroke-linejoin="round"/>
<path d="M7.33609 4.30823C7.32601 4.28423 6.99637 3.48539 7.58581 3.09947C8.22757 2.67947 8.85385 3.43355 8.85385 3.43355C8.85385 3.43355 9.11497 1.40699 11.1431 0.956032C13.1712 0.505072 14.1632 2.27423 14.1632 2.27423C14.1632 2.27423 14.9246 0.978232 16.3049 1.37711C17.3308 1.67339 17.3352 2.70767 17.3352 2.72483" stroke="#0400BF" stroke-width="0.08796" stroke-linecap="round" stroke-linejoin="round"/>
<path d="M10.0591 12.4966C10.0591 12.4966 9.9959 13.0913 9.21038 13.3107C8.42486 13.53 8.0231 12.8236 8.0231 12.8236C8.0231 12.8236 6.11198 14.3611 4.29266 13.3803C2.72918 12.5368 2.68562 10.5042 3.94406 9.05065C3.94406 9.05065 2.74802 8.92321 2.94578 7.83577C3.15854 6.66697 4.55282 6.81985 4.55282 6.81985C4.55282 6.81985 3.62534 5.55073 4.70582 4.39333C5.77526 3.24781 7.3049 4.28605 7.33574 4.30717" stroke="#0400BF" stroke-width="0.08796" stroke-linecap="round" stroke-linejoin="round"/>
<path d="M10.067 14.8624C10.2438 14.8624 10.3871 14.7191 10.3871 14.5423C10.3871 14.3656 10.2438 14.2223 10.067 14.2223C9.8903 14.2223 9.74701 14.3656 9.74701 14.5423C9.74701 14.7191 9.8903 14.8624 10.067 14.8624Z" stroke="#0400BF" stroke-width="0.08796" stroke-linecap="round" stroke-linejoin="round"/>
<path d="M8.80696 15.2209C9.05847 15.2209 9.26236 14.9777 9.26236 14.6777C9.26236 14.3777 9.05847 14.1345 8.80696 14.1345C8.55545 14.1345 8.35156 14.3777 8.35156 14.6777C8.35156 14.9777 8.55545 15.2209 8.80696 15.2209Z" stroke="#0400BF" stroke-width="0.08796" stroke-linecap="round" stroke-linejoin="round"/>
<path d="M7.8095 14.49C7.70222 14.7651 7.35506 14.9976 7.0799 14.8908C6.80474 14.784 6.70574 14.3774 6.81302 14.1023C6.9203 13.8271 7.26758 13.5945 7.54274 13.7018C7.8179 13.8091 7.91678 14.2148 7.8095 14.49Z" stroke="#0400BF" stroke-width="0.08796" stroke-linecap="round" stroke-linejoin="round"/>
<path d="M8.18355 7.29621C8.30451 7.49709 7.70055 8.08341 6.83367 8.60649C5.96679 9.12957 5.16687 9.39117 5.04567 9.19077C4.92447 8.99037 5.52927 8.40345 6.39555 7.88037C7.26183 7.35729 8.06271 7.09617 8.18355 7.29621Z" stroke="#0400BF" stroke-width="0.08796" stroke-linecap="round" stroke-linejoin="round" stroke-dasharray="0.53 0.53"/>
<path d="M9.77391 9.93084C9.89475 10.1314 9.29043 10.7182 8.42403 11.2412C7.55763 11.7643 6.75675 12.0258 6.63603 11.8249C6.51531 11.624 7.11915 11.0377 7.98543 10.515C8.85171 9.99228 9.65259 9.73044 9.77391 9.93084Z" stroke="#0400BF" stroke-width="0.08796" stroke-linecap="round" stroke-linejoin="round" stroke-dasharray="0.53 0.53"/>
<path d="M5.04553 9.19116L6.63589 11.8249" stroke="#0400BF" stroke-width="0.08796" stroke-linecap="round" stroke-linejoin="round" stroke-dasharray="0.53 0.53"/>
<path d="M8.18353 7.29657L9.77389 9.93081" stroke="#0400BF" stroke-width="0.08796" stroke-linecap="round" stroke-linejoin="round" stroke-dasharray="0.53 0.53"/>
<path d="M4.44916 8.2025L5.40652 7.62494" stroke="#0400BF" stroke-width="0.08796" stroke-linecap="round" stroke-linejoin="round"/>
<path d="M6.62976 6.88609L7.58712 6.30853" stroke="#0400BF" stroke-width="0.08796" stroke-linecap="round" stroke-linejoin="round"/>
<path d="M5.98889 7.4966C6.01316 7.50805 6.0399 7.51328 6.06669 7.51181C6.09349 7.51035 6.11949 7.50223 6.14237 7.4882C6.16095 7.47717 6.17717 7.46257 6.19008 7.44524C6.203 7.42791 6.21236 7.40819 6.21762 7.38723C6.22288 7.36627 6.22394 7.34447 6.22074 7.3231C6.21754 7.30172 6.21014 7.28119 6.19897 7.26269C6.1878 7.24419 6.17308 7.22808 6.15565 7.21529C6.13823 7.20251 6.11845 7.1933 6.09745 7.18819C6.07645 7.18308 6.05464 7.18218 6.03329 7.18554C6.01194 7.1889 5.99147 7.19645 5.97305 7.20776L5.96825 7.19984C6.00447 7.17695 6.03028 7.14077 6.04014 7.09906C6.04999 7.05736 6.04312 7.01346 6.02098 6.97676C5.99884 6.94007 5.96321 6.91352 5.92172 6.9028C5.88023 6.89207 5.83619 6.89803 5.79905 6.9194C5.77593 6.93311 5.75659 6.95235 5.74277 6.97539C5.72894 6.99844 5.72107 7.02456 5.71985 7.0514" stroke="#0400BF" stroke-width="0.08796" stroke-linecap="round" stroke-linejoin="round"/>
<path d="M14.8266 5.37132C14.9064 5.88254 14.7836 6.40475 14.4842 6.82674C14.1847 7.24874 13.7324 7.53719 13.2235 7.63068C13.2064 7.63332 13.1892 7.63644 13.172 7.63908C12.6526 7.71887 12.1227 7.58941 11.6986 7.27909C11.2745 6.96878 10.9907 6.50293 10.9096 5.98371C10.8284 5.46449 10.9565 4.93427 11.2657 4.50933C11.5749 4.08439 12.04 3.79941 12.559 3.71688C12.5761 3.71424 12.5928 3.7116 12.61 3.7098C13.1231 3.6431 13.642 3.77948 14.0561 4.08985C14.4702 4.40022 14.7467 4.86005 14.8266 5.37132V5.37132Z" stroke="#0400BF" stroke-width="0.08796" stroke-linecap="round" stroke-linejoin="round"/>
<path d="M12.5585 3.38013L12.61 3.70977L12.9167 5.67021L13.2235 7.63065L13.275 7.95993" stroke="#0400BF" stroke-width="0.08796" stroke-linecap="round" stroke-linejoin="round" stroke-dasharray="0.53 0.53"/>
<path d="M10.6271 6.02805L10.9044 5.98449L12.9167 5.67021L14.8266 5.37129L15.2064 5.31201" stroke="#0400BF" stroke-width="0.08796" stroke-linecap="round" stroke-linejoin="round" stroke-dasharray="0.53 0.53"/>
<path d="M9.0425 5.40613C8.69966 6.28477 9.05606 7.96429 10.4073 8.14009C11.7585 8.31589 11.6157 8.86717 12.0633 9.21793C12.5109 9.56869 13.0473 9.41881 13.4562 9.09265" stroke="#0400BF" stroke-width="0.08796" stroke-linecap="round" stroke-linejoin="round"/>
<path d="M16.4139 6.53048L14.4873 8.60336L14.4714 8.37524L14.2653 8.3972L14.26 8.1788L14.0438 8.19104L15.9704 6.11816" stroke="#0400BF" stroke-width="0.08796" stroke-linecap="round" stroke-linejoin="round"/>
<path d="M13.8684 8.67107L13.7765 8.92343L14.0213 8.81303L14.4872 8.60339" stroke="#0400BF" stroke-width="0.08796" stroke-linecap="round" stroke-linejoin="round"/>
<path d="M14.0437 8.1911L13.8688 8.6711" stroke="#0400BF" stroke-width="0.08796" stroke-linecap="round" stroke-linejoin="round"/>
<path d="M13.8684 8.67107C13.9704 8.64563 14.0716 8.71247 14.0209 8.81303" stroke="#0400BF" stroke-width="0.08796" stroke-linecap="round" stroke-linejoin="round"/>
<path d="M16.1918 6.32434L14.5013 8.14318" stroke="#0400BF" stroke-width="0.08796" stroke-linecap="round" stroke-linejoin="round"/>
<path d="M16.6398 6.28738L16.4139 6.5305L16.1919 6.32434L15.9703 6.11818L16.1963 5.87506" stroke="#0400BF" stroke-width="0.08796" stroke-linecap="round" stroke-linejoin="round"/>
<path d="M16.6398 6.2874L16.7405 6.1788C16.7676 6.14965 16.7886 6.11545 16.8025 6.07815C16.8163 6.04086 16.8227 6.0012 16.8212 5.96144C16.8198 5.92168 16.8105 5.8826 16.7939 5.84643C16.7773 5.81026 16.7538 5.77771 16.7246 5.75064C16.6955 5.72357 16.6613 5.7025 16.624 5.68864C16.5867 5.67479 16.547 5.66841 16.5073 5.66988C16.4675 5.67136 16.4284 5.68064 16.3923 5.69722C16.3561 5.71379 16.3236 5.73733 16.2965 5.76648L16.1958 5.87508L16.6398 6.2874Z" stroke="#0400BF" stroke-width="0.08796" stroke-linecap="round" stroke-linejoin="round"/>
<path d="M16.7374 15.1682C16.7957 15.2418 16.8338 15.3293 16.848 15.4221C16.8622 15.5149 16.8519 15.6098 16.8182 15.6974C16.7527 15.8729 16.646 16.03 16.507 16.1555" stroke="#0400BF" stroke-width="0.08796" stroke-linecap="round" stroke-linejoin="round"/>
<path d="M12.3524 15.7443C12.3524 15.7443 12.4917 15.5619 12.6336 15.6352C12.7756 15.7085 12.8394 15.7443 12.8394 15.7443" stroke="#0400BF" stroke-width="0.08796" stroke-linecap="round" stroke-linejoin="round"/>
<path d="M11.8596 16.8869C11.9013 16.8775 11.9448 16.8821 11.9836 16.8999C12.0225 16.9176 12.0544 16.9476 12.0745 16.9853" stroke="#0400BF" stroke-width="0.08796" stroke-linecap="round" stroke-linejoin="round"/>
<path d="M16.9264 14.4851C16.9264 14.4851 16.9378 14.2122 17.1563 14.239" stroke="#0400BF" stroke-width="0.08796" stroke-linecap="round" stroke-linejoin="round"/>
<path d="M9.70538 12.0091C9.70538 12.0091 9.71498 12.431 10.0605 12.4899C10.1175 12.499 10.1757 12.499 10.2328 12.4899C10.6996 12.4244 10.7466 12.1889 10.7514 12.1453C10.7514 12.1409 10.7514 12.1382 10.7514 12.1382" stroke="#0400BF" stroke-width="0.08796" stroke-linecap="round" stroke-linejoin="round"/>
<path d="M15.2081 11.6561V11.657C15.2596 11.751 15.3404 11.8255 15.4381 11.8694C15.5359 11.9133 15.6453 11.924 15.7497 11.9C16.0737 11.8442 16.1914 11.4649 16.1914 11.4649" stroke="#0400BF" stroke-width="0.08796" stroke-linecap="round" stroke-linejoin="round"/>
<path d="M21.0841 6.59061L17.9993 3.97485L17.0038 9.45477L21.0841 6.59061Z" stroke="#0400BF" stroke-width="0.08796" stroke-linecap="round" stroke-linejoin="round"/>
<path d="M20.3364 6.55644L17.6534 8.43985L18.3079 4.83636L20.3364 6.55644Z" stroke="#0400BF" stroke-width="0.08796" stroke-linecap="round" stroke-linejoin="round"/>
<path d="M17.3993 9.80648L21.4798 6.94232" stroke="#0400BF" stroke-width="0.08796" stroke-linecap="round" stroke-linejoin="round" stroke-dasharray="0.53 0.53"/>
<path d="M19.8714 22.4239C19.6715 22.6347 19.4591 22.8333 19.2354 23.0186V23.0186" stroke="#0400BF" stroke-width="0.08796" stroke-linecap="round" stroke-linejoin="round"/>
</g>
<defs>
<clipPath id="clip0_51107_3228">
<rect width="24" height="24" fill="white" transform="translate(0.991821 0.252258)"/>
</clipPath>
</defs>
</svg>
